<?xml version="1.0" standalone="no"?><!DOCTYPE svg PUBLIC "-//W3C//DTD SVG 1.1//EN" "http://www.w3.org/Graphics/SVG/1.1/DTD/svg11.dtd"><svg t="1720248988352" class="icon" viewBox="0 0 1116 1024" version="1.1" xmlns="http://www.w3.org/2000/svg" p-id="2326" xmlns:xlink="http://www.w3.org/1999/xlink" width="217.96875" height="200"><path d="M136.143054 771.242549H985.529574l108.163227 148.188904c40.069693 56.15039 18.032095 102.279688-52.071526 102.279689H70.044934c-68.108207 0-90.145805-44.016506-50.076112-100.152224z" fill="#DAE9FF" p-id="2327"></path><path d="M252.361302 54.081614h542.870243a125.681797 125.681797 0 0 1 126.180651 126.180651v607.002293a125.681797 125.681797 0 0 1-126.180651 126.180651H252.361302a125.681797 125.681797 0 0 1-126.180651-126.180651V180.291609a125.681797 125.681797 0 0 1 126.180651-126.180651z" fill="#DAEFE8" p-id="2328"></path><path d="M216.282439 54.081614h544.88033a125.667125 125.667125 0 0 1 126.180651 126.180651v607.002293a125.667125 125.667125 0 0 1-126.180651 126.180651H216.282439a125.681797 125.681797 0 0 1-126.180651-126.180651V180.291609a125.681797 125.681797 0 0 1 126.180651-126.180651z" fill="#24A583" p-id="2329"></path><path d="M707.066483 322.523613H304.418157c-18.017423 0-34.054104 14.026593-34.054104 32.044017s14.026593 32.058689 34.054104 32.058688h402.648326c18.032095 0 34.068776-14.026593 34.068776-32.058688s-16.03668-32.044017-34.068776-32.044017z" fill="#DAE9FF" p-id="2330"></path><path d="M687.038973 304.491518H286.400734c-18.032095 0-34.068776 14.026593-34.068776 32.058688s14.026593 32.044017 34.068776 32.044017h400.638239c18.032095 0 34.054104-14.026593 34.054104-32.044017-1.995415-18.032095-16.022008-32.058689-34.054104-32.058688z" fill="#FFFFFF" p-id="2331"></path><path d="M705.071068 518.837231H304.418157c-18.017423 0-34.054104 14.026593-34.054104 32.058688s14.026593 32.117377 34.054104 32.117378h400.652911c18.032095 0 34.054104-14.026593 34.054104-32.044017-1.995415-16.03668-16.022008-32.058689-34.054104-32.058689z" fill="#DAE9FF" p-id="2332"></path><path d="M687.038973 502.815222H286.400734c-18.032095 0-34.068776 14.026593-34.068776 32.044017s14.026593 32.014672 34.068776 32.014672h400.638239c18.032095 0 34.054104-14.026593 34.054104-32.058689-1.995415-18.017423-16.022008-32.044017-34.054104-32.044016z" fill="#FFFFFF" p-id="2333"></path><path d="M374.536451 160.264099c-38.059606 0-68.108207-24.047685-68.108207-52.086199v-2.010087c0-28.038514 30.048602-52.086199 68.108207-52.086199h366.598808c4.005502 44.016506-18.032095 74.123796-34.068776 86.140303s-38.015589 20.042182-56.091701 20.042182z" fill="#269172" p-id="2334"></path><path d="M628.937185 132.210912H356.5337c-36.049519 0-66.024759-30.048602-66.024759-66.024759S320.454837 0 356.5337 0h272.403485c36.064191 0 66.112792 30.048602 66.112792 66.112792v1.995415c0 18.032095-8.011004 34.054104-20.02751 46.07061S647.042641 132.210912 628.937185 132.210912z" fill="#DAEFE8" p-id="2335"></path><path d="M556.896836 669.579092a53.861531 53.861531 0 0 1 54.081614-54.096286h406.653829c30.063274 0 58.101788 24.047685 62.10729 54.096286 0 0 4.005502 26.043099 4.005502 42.065108v194.376891a53.846859 53.846859 0 0 1-54.081614 54.066942H610.97845a53.846859 53.846859 0 0 1-54.081614-54.081614z" fill="#FFD6C2" p-id="2336"></path><path d="M590.95094 615.541495h398.642824a53.861531 53.861531 0 0 1 54.081614 54.037597v236.441999a53.846859 53.846859 0 0 1-54.081614 54.066942h-398.642824a53.846859 53.846859 0 0 1-54.081614-54.081614V669.579092a53.861531 53.861531 0 0 1 54.081614-54.096286z" fill="#FC7E37" p-id="2337"></path><path d="M637.02155 729.734984c4.005502-18.032095 22.008253-34.054104 40.069693-34.054104h148.188904c18.032095 0 34.068776 16.022008 34.068776 34.054104s-16.03668 34.054104-34.068776 34.054104H665.074736c-18.032095 0-30.048602-14.026593-28.053186-34.054104z m2.010087 92.14122c1.995415-14.011921 18.032095-26.043099 32.044016-26.0431H937.551582c14.026593 0 28.053187 12.031178 30.048601 28.053187v6.000917c2.010087 18.032095-12.016506 32.058689-30.048601 32.058688H665.074736c-18.032095 0-30.048602-14.026593-26.043099-32.058688z" fill="#FFD6C2" p-id="2338"></path><path d="M645.047226 695.68088h162.259514a28.053187 28.053187 0 0 1 0 56.091701H645.047226a28.053187 28.053187 0 1 1 0-56.091701z m0 100.152224h272.432829a28.053187 28.053187 0 0 1 0 56.091701H645.047226a28.053187 28.053187 0 1 1 0-56.091701z" fill="#FFFFFF" p-id="2339"></path></svg>